<svg width="26" height="23" viewBox="0 0 26 23" fill="none" xmlns="http://www.w3.org/2000/svg">
<path d="M16.7917 4.48781C16.1958 4.48781 15.6856 4.2679 15.2609 3.8281C14.8363 3.38829 14.6243 2.86023 14.625 2.2439C14.625 1.62683 14.8373 1.09839 15.262 0.658587C15.6867 0.218782 16.1966 -0.000746063 16.7917 1.90484e-06C17.3875 1.90484e-06 17.8977 0.219904 18.3224 0.659709C18.7471 1.09951 18.9591 1.62758 18.9583 2.2439C18.9583 2.86098 18.746 3.38942 18.3213 3.82922C17.8967 4.26903 17.3868 4.48855 16.7917 4.48781ZM13 19.6341C12.6931 19.6341 12.4356 19.5264 12.2276 19.311C12.0196 19.0956 11.9159 18.8293 11.9167 18.5122V14.0244L8.45 10.8829C8.19722 10.6585 8.02569 10.4248 7.93542 10.1817C7.84514 9.93862 7.8 9.64878 7.8 9.3122C7.8 8.97561 7.84983 8.69026 7.9495 8.45615C8.04917 8.22203 8.216 7.98381 8.45 7.74146L11.4833 4.6C11.7181 4.35691 11.9665 4.18376 12.2287 4.08054C12.4908 3.97732 12.7841 3.92608 13.1083 3.92683C13.4333 3.92683 13.7269 3.97844 13.9891 4.08166C14.2513 4.18488 14.4993 4.35766 14.7333 4.6L16.7917 6.73171C17.1889 7.14309 17.6269 7.48903 18.1057 7.76951C18.5846 8.05 19.1216 8.23699 19.7167 8.33049C20.0056 8.38659 20.2403 8.51748 20.4208 8.72317C20.6014 8.92886 20.6917 9.17195 20.6917 9.45244C20.6917 9.80772 20.5743 10.0931 20.3396 10.3085C20.1049 10.5239 19.834 10.6125 19.5271 10.5744C18.6604 10.4435 17.8616 10.1817 17.1307 9.78903C16.3999 9.39634 15.7452 8.90081 15.1667 8.30244L14.3 7.40488L11.7 10.0976L13.4875 12.0329C13.6861 12.2386 13.8352 12.4772 13.9349 12.7487C14.0346 13.0202 14.0841 13.2959 14.0833 13.5756V18.5122C14.0833 18.8301 13.9793 19.0967 13.7713 19.3121C13.5633 19.5276 13.3062 19.6349 13 19.6341ZM5.41667 23C3.88194 23 2.59531 22.4622 1.55675 21.3866C0.518195 20.3111 -0.000721469 18.9789 7.52838e-07 17.3902C7.52838e-07 15.8008 0.519278 14.4683 1.55783 13.3927C2.59639 12.3172 3.88267 11.7797 5.41667 11.7805C6.95139 11.7805 8.23803 12.3183 9.27658 13.3939C10.3151 14.4694 10.8341 15.8016 10.8333 17.3902C10.8333 18.9797 10.3141 20.3122 9.2755 21.3878C8.23695 22.4633 6.95067 23.0007 5.41667 23ZM5.41667 21.3171C6.44583 21.3171 7.33525 20.9289 8.08492 20.1525C8.83458 19.3761 9.20906 18.4553 9.20833 17.3902C9.20833 16.3244 8.8335 15.4033 8.08383 14.6269C7.33417 13.8505 6.44511 13.4627 5.41667 13.4634C4.3875 13.4634 3.49808 13.8516 2.74842 14.628C1.99875 15.4044 1.62428 16.3251 1.625 17.3902C1.625 18.4561 1.99983 19.3772 2.7495 20.1536C3.49917 20.93 4.38822 21.3178 5.41667 21.3171ZM20.5833 23C19.0486 23 17.762 22.4622 16.7234 21.3866C15.6849 20.3111 15.1659 18.9789 15.1667 17.3902C15.1667 15.8008 15.6859 14.4683 16.7245 13.3927C17.7631 12.3172 19.0493 11.7797 20.5833 11.7805C22.1181 11.7805 23.4047 12.3183 24.4432 13.3939C25.4818 14.4694 26.0007 15.8016 26 17.3902C26 18.9797 25.4807 20.3122 24.4422 21.3878C23.4036 22.4633 22.1173 23.0007 20.5833 23ZM20.5833 21.3171C21.6125 21.3171 22.5019 20.9289 23.2516 20.1525C24.0012 19.3761 24.3757 18.4553 24.375 17.3902C24.375 16.3244 24.0002 15.4033 23.2505 14.6269C22.5008 13.8505 21.6118 13.4627 20.5833 13.4634C19.5542 13.4634 18.6647 13.8516 17.9151 14.628C17.1654 15.4044 16.7909 16.3251 16.7917 17.3902C16.7917 18.4561 17.1665 19.3772 17.9162 20.1536C18.6658 20.93 19.5549 21.3178 20.5833 21.3171Z" fill="white"/>
</svg>
