<svg width="22" height="23" viewBox="0 0 22 23" fill="none" xmlns="http://www.w3.org/2000/svg">
<path d="M16.6778 4.76508C17.9937 4.76508 19.0604 3.69838 19.0604 2.38254C19.0604 1.0667 17.9937 0 16.6778 0C15.362 0 14.2953 1.0667 14.2953 2.38254C14.2953 3.69838 15.362 4.76508 16.6778 4.76508Z" fill="white"/>
<path d="M15.2209 10.6739C15.4943 11.0814 15.8866 11.3949 16.3444 11.5718C16.8022 11.7487 17.3033 11.7804 17.7797 11.6627L21.73 10.6751L21.1546 8.36403L17.2043 9.35159L15.5616 6.88924C15.2106 6.36337 14.6659 5.99766 14.0463 5.87189L9.46464 4.95461C8.95209 4.85175 8.41993 4.92049 7.95034 5.15023C7.48075 5.37996 7.09986 5.75791 6.86648 6.2257L4.89136 10.176L7.02254 11.2421L8.99767 7.2907L11.3409 7.76006L5.28209 17.8585H0V20.241H5.28209C6.1136 20.241 6.89626 19.7978 7.32512 19.0843L9.60998 15.277L15.7677 16.5087L17.931 23L20.1896 22.2459L18.0275 15.7559C17.8941 15.3574 17.658 15.0012 17.343 14.723C17.028 14.4449 16.6453 14.2546 16.2334 14.1715L12.6132 13.4484L14.7241 9.92936L15.2209 10.6739Z" fill="white"/>
</svg>
