<svg width="29" height="14" viewBox="0 0 29 14" fill="none" xmlns="http://www.w3.org/2000/svg">
<path d="M25.2799 2.45C25.2799 2.12826 25.2126 1.80967 25.0818 1.51243C24.951 1.21518 24.7593 0.945092 24.5177 0.717588C24.2761 0.490085 23.9892 0.309619 23.6735 0.186495C23.3577 0.0633709 23.0194 0 22.6776 0C22.3359 0 21.9975 0.0633709 21.6818 0.186495C21.3661 0.309619 21.0792 0.490085 20.8376 0.717588C20.5959 0.945092 20.4042 1.21518 20.2735 1.51243C20.1427 1.80967 20.0754 2.12826 20.0754 2.45C20.0754 2.77174 20.1427 3.09033 20.2735 3.38757C20.4042 3.68482 20.5959 3.95491 20.8376 4.18241C21.0792 4.40991 21.3661 4.59038 21.6818 4.7135C21.9975 4.83663 22.3359 4.9 22.6776 4.9C23.0194 4.9 23.3577 4.83663 23.6735 4.7135C23.9892 4.59038 24.2761 4.40991 24.5177 4.18241C24.7593 3.95491 24.951 3.68482 25.0818 3.38757C25.2126 3.09033 25.2799 2.77174 25.2799 2.45ZM13.2631 4.47125L9.14597 7.70438C9.19709 7.70438 9.2482 7.7 9.29932 7.7C10.8374 7.69125 12.3802 8.14625 13.686 9.07375C14.7129 9.8 15.0382 9.8 16.0651 9.07375C17.343 8.16812 18.8486 7.70875 20.3588 7.7C20.5819 7.7 20.8096 7.70875 21.0326 7.72625C20.647 6.41375 19.9035 5.20187 18.8579 4.2175C18.0029 3.4125 16.9713 2.78688 15.8375 2.38875L12.6497 1.26438C11.3765 0.81375 9.95453 0.93625 8.78817 1.59687L6.30209 3.00125C5.59577 3.39938 5.36808 4.25688 5.79094 4.92188C6.2138 5.58687 7.12459 5.80125 7.83091 5.40312L10.317 3.99437C10.7073 3.77562 11.1813 3.73625 11.6042 3.885L13.2631 4.47125ZM18.3746 12.4294C19.3644 11.725 20.6934 11.725 21.6832 12.4294C22.5661 13.0594 23.6302 13.6631 24.8059 13.8862C26.0373 14.1225 27.3291 13.9212 28.5559 13.0506C29.0485 12.7006 29.1461 12.0444 28.7743 11.5806C28.4026 11.1169 27.7055 11.025 27.213 11.375C26.5206 11.865 25.884 11.9481 25.2473 11.8256C24.555 11.6944 23.8115 11.305 23.0261 10.7494C21.2418 9.48063 18.8207 9.48063 17.0317 10.7494C15.9164 11.5413 15.1404 11.9 14.4992 11.9C13.8579 11.9 13.0819 11.5413 11.9666 10.7494C10.1822 9.48063 7.76121 9.48063 5.97217 10.7494C4.96845 11.4625 4.05301 11.8781 3.23517 11.8737C2.78907 11.8694 2.31044 11.7425 1.78535 11.3706C1.29278 11.0206 0.595751 11.1125 0.224002 11.5763C-0.147747 12.04 -0.0455162 12.7006 0.447051 13.0506C1.3346 13.6806 2.27791 13.9694 3.22587 13.9737C4.80116 13.9825 6.2138 13.2125 7.31976 12.4294C8.30954 11.725 9.63854 11.725 10.6283 12.4294C11.7529 13.23 13.0586 14 14.5038 14C15.949 14 17.2501 13.2256 18.3793 12.4294H18.3746Z" fill="white"/>
</svg>
